<?xml version="1.0" encoding="UTF-8" standalone="no"?>
<svg
   xmlns:dc="http://purl.org/dc/elements/1.1/"
   xmlns:cc="http://creativecommons.org/ns#"
   xmlns:rdf="http://www.w3.org/1999/02/22-rdf-syntax-ns#"
   xmlns:svg="http://www.w3.org/2000/svg"
   xmlns="http://www.w3.org/2000/svg"
   viewBox="0 0 532 996"
   height="996"
   width="532"
   id="svg815"
   version="1.1">
  <circle
     r="96.758965"
     cy="109.30721"
     cx="358.48404"
     id="path1552"
     style="opacity:1;fill:#000000;fill-opacity:1;stroke:#000000;stroke-width:14;stroke-miterlimit:4;stroke-dasharray:none;stroke-opacity:1" />
  <circle
     r="87.883766"
     cy="305.99756"
     cx="421.93253"
     id="path1552-4"
     style="opacity:1;fill:#000000;fill-opacity:1;stroke:#000000;stroke-width:12.71585178;stroke-miterlimit:4;stroke-dasharray:none;stroke-opacity:1" />
  <circle
     r="87.883766"
     cy="505.86032"
     cx="414.00146"
     id="path1552-4-0"
     style="opacity:1;fill:#000000;fill-opacity:1;stroke:#000000;stroke-width:12.71585178;stroke-miterlimit:4;stroke-dasharray:none;stroke-opacity:1" />
  <rect
     transform="rotate(2.7241326)"
     y="285.67673"
     x="347.05322"
     height="195.10414"
     width="179.24202"
     id="rect1590"
     style="opacity:1;fill:#000000;fill-opacity:1;stroke:#000000;stroke-width:14;stroke-miterlimit:4;stroke-dasharray:none;stroke-opacity:1" />
  <path
     id="path1592"
     d="m 374.34615,594.68824 c -6.34485,368.0013 -9.51727,361.65645 -3.17242,379.10478 6.34485,17.44834 22.20697,20.62077 34.89667,20.62077 12.6897,0 33.31046,-14.27592 34.89668,-22.20698 1.58621,-7.93106 36.48289,-399.72555 36.48289,-399.72555 z"
     style="fill:#000000;stroke:#000000;stroke-width:1px;stroke-linecap:butt;stroke-linejoin:miter;stroke-opacity:1;fill-opacity:1" />
  <path
     id="foot"
     d="M 365.97284,585.35747 C 255.70689,936.50791 254.4605,929.52452 255.60613,948.05526 c 1.14573,18.53077 15.46082,26.06397 27.63139,29.6564 12.17058,3.59243 35.98919,-4.26177 39.75587,-11.4193 3.76659,-7.15755 148.15212,-373.04485 148.15212,-373.04485 z"
     style="fill:#000000;fill-opacity:1;stroke:#000000;stroke-width:1px;stroke-linecap:butt;stroke-linejoin:miter;stroke-opacity:1" />
  <path
     id="path1620"
     d="m 335.48395,265.94569 -71.77612,53.53467 24.58629,72.56923 34.89668,-20.62077 z"
     style="fill:#000000;stroke:#000000;stroke-width:1px;stroke-linecap:butt;stroke-linejoin:miter;stroke-opacity:1;fill-opacity:1" />
  <path
     id="path1622"
     d="m 263.70783,319.48036 24.58629,72.56923 -188.362732,9.91382 c 0,0 -20.224209,-4.36208 -26.965613,-21.01731 -6.741403,-16.65523 9.913829,-30.93114 9.913829,-30.93114 l 9.517275,-5.1552 14.672461,-1.58621 -2.77587,-6.34485 -21.413866,5.55175 c 0,0 -7.137957,-7.53451 -9.517275,-9.91383 -2.379319,-2.37932 -53.138119,1.18966 -53.138119,1.18966 l -2.379319,-7.53451 -11.1034878,-0.39656 v -22.60352 l 5.9482968,-0.79311 -2.379319,-6.7414 3.172425,-0.39656 0.257059,-3.03809 10.304899,-0.3505 1.121621,2.38344 0.280406,0.91132 95.057429,-8.20186 c 0,0 4.20608,-9.04307 5.39781,0.49071 1.19172,9.53378 -0.0701,-0.2103 -0.0701,-0.2103 l 4.90709,2.38344 11.21622,0.0701 2.38344,27.54983 -2.45354,0.98142 0.84121,4.20609 -2.52365,0.84121 1.68244,5.0473 2.80405,9.25338 119.01864,-18.12775 24.58629,72.56923 z"
     style="fill:#000000;fill-opacity:1;stroke:#290000;stroke-width:1px;stroke-linecap:butt;stroke-linejoin:miter;stroke-opacity:1" />
</svg>
